<svg id="Layer_1" data-name="Layer 1" xmlns="http://www.w3.org/2000/svg" viewBox="0 0 383.36 424.42"><defs><style>.cls-1{fill:#ee08fd;}.cls-2{fill:#0ff6fd;}.cls-3{fill:#fdfdfe;}</style></defs><path class="cls-1" d="M207.32,202.86c-1.93.16-2.41-1.52-3.36-2.63s-2.25-2.45-4.1-2.5c-1,1.2.08,2.1.49,3,2.84,6.32-1.52,12-5.51,15.29-1.46,1.21-1.74-.13-2.36-1-2.32-3.37-3.47-7.53-6.77-10.25a13.85,13.85,0,0,0-7.25-7.87c1.27,4.71,2.55,8.51,4.81,12,1.37,5.4,1,10.91,1.15,16.4a11.77,11.77,0,0,1-4.21,9.46c-.68.62-1.25,1.67-2.36,1.36s-.79-1.58-1-2.46c-.41-2.08-.5-4.35-3.06-5.63-.47,1.67-1.21,3.09-1.22,4.51-.05,7.6-3.83,13.51-8.28,19.18-1.12,1.43-1.76,1.47-2.54-.25-1-2.22-.65-4.59-.9-7.54a10.73,10.73,0,0,0-2.48,8.67c.45,4.6-2,7.15-4.94,9.77-1.45,1.32-2.21,1.3-2.62-.88-.74-3.9-1.91-7.71-2-11.72.54-2.81.87-5.66,1.28-8.48a49.39,49.39,0,0,1,2-10c2.55-7,7.94-11.65,12.2-17.16-1.19.31-3.13.24-3.65,1.06-2.45,3.85-7,5.67-9,9.87-.47,1-1.46,2.45-2.66,1.84-1.43-.73-1.17-2.72-.4-3.65,2.38-2.87,3.36-6.45,5.35-9.51,1.25-1.95,4.26-2.44,4.57-6-2.58,1.41-4.67,2.59-6.79,3.7-.69.36-1.48,1.1-2.26.53s-.55-1.5-.31-2.28c1.54-5.16,1.92-10.57,5.6-15.18,2.12-2.65,4.21-5.57,6.45-8.73a6.36,6.36,0,0,0-4.69,0c-4,1.73-8,3.42-12,5.15-.85.37-1.72,1.29-2.62.54s0-1.77.12-2.67a7.89,7.89,0,0,0-.22-4.85c-3.18,2.07-2.14,5.42-2.88,8.11l.05-.1a1.8,1.8,0,0,0-.89,1.75l.06-.08c-7.2,3.09-14.54,5.89-21.19,10.14-.46.29-1,.72-1.49.68C104.78,203.67,100,212.59,93,218a11.05,11.05,0,0,1-2.24,1.81c-1.63.66-2.6,3.56-4.23,2.59-1.88-1.11-.78-3.81-.7-5.76.1-2.71,1.35-5.3,1.2-8.08C91.53,193.7,99.66,181,111.31,169c-7,2-10.93,7-16.52,8.87a30.36,30.36,0,0,1,13.59-13.8,102.13,102.13,0,0,1,28.94-10.22c4.34-.83,8.91-1.19,13-3.92a20.9,20.9,0,0,0-8.42-6.07c-8.3-3.43-8.42-3.83-4.43-12.1.12-.25.2-.52.34-.76,1.28-2.28,2.61-4.53,3.83-6.84s2.15-4.41,3.22-6.61c-7.48,5-11.28,12.44-15.11,19.92-.52,1-.56,3.36-2.54,2.34-1.56-.8-3.54-2-2.61-4.5.86-2.3,1.39-4.72,3-6.73,1.22-1.52,2.61-3.09,2.34-5.62-5.72,1.94-7,7.78-10.93,11-4.59,5.06-5.3,5.28-11.8,2.07-1.63-.8-4.58.49-4.8-2.76,4.72-4.59,7.75-10.62,12.7-15a2.48,2.48,0,0,0-.12-4c-1.74-1.45-2.37.56-3.06,1.49-3.39,4.53-6.34,9.39-10.49,13.79-.78-1.61-.25-2.69,0-3.85.38-1.68,1.21-4.35.47-5-1.77-1.5-2.73,1.55-4.38,1.84-1.48.27-2.25,1.51-3.4,2.14-3.36,1.86-4.68,5.76-8,7.62-3-.08-6-.15-9-.26-.88,0-2.1.41-2.43-.86-.23-.91.67-1.45,1.3-1.93,3.13-2.43,6.29-4.81,9.43-7.21,2.6-1.41,5.65-1.91,7.93-4,2.44-.36,4.25-1.93,6.18-3.27,1.61.52,3-.37,4.34-.9a147.4,147.4,0,0,1,23-7.13c2-.43,4.53.89,6.08-1.46,8.57.08,17,2.21,25.55,2h-.06c1.33,1.37,2.8,2.42,4.88,2,5.75,1.69,11.5,3.37,17.25,5.08.88.27,1.92,1.12,2.52,0s-.6-1.65-1.22-2.36c-3.56-4.13-8.49-5.64-13.46-7-3.35-.88-5.38-2.24-6.4-6C157.69,83,147.83,70,137,57.6c-.31-1-2.08-1.49-1.47-2.7s2-.52,3-.55c7.16-.17,10.74,2.73,12.72,10.24.84,3.18,1.71,6.34,5.12,8.29,1-3.51-2.25-6.2-1.63-9.52.18-1-1-2.34.2-3s2.43.31,3.28,1.14c3.93,3.86,7.83,7.77,11.6,11.79,1.12,1.2,2,2.66,3.42,3.52l10.33,14.74,3.39-8A5.24,5.24,0,0,0,188.7,80,44.86,44.86,0,0,0,193,71.72c1-2.46,2.77-4.86,5.25-5.28,2.9-.49,3.86-2.07,4.59-4.37a3,3,0,0,0,1.74-1.7c4.17-3,4.11-3,6.57,1.58.64,1.19.71,3,2.54,3.5a6.16,6.16,0,0,0,.13-5c-.85-2.16-.36-4.36-.57-6.53-.11-1.21.07-2.3,1.36-2.66,1.8-.5,1.86,1.19,2.38,2.18a4.54,4.54,0,0,1,.47,2c.11,4.88,2,9.38,2.87,14.12.83-7.93,1.3-15.82,2.78-23.64.59-3.14,2.09-4.13,4.62-4.75,2.48.79,5.16-.46,7.65,1,1.42.8,2.16-.87,2.82-1.78,1.57-2.18,3.83-1.87,5.55-1,1.87.89.06,2.65-.09,4-.09.8-.54,1.57-.6,2.38s-.53,2.11.44,2.67,1.79-.38,2.41-1.09c2.74-3.1,7-3.28,10.37-5.56-2.79,4-4.49,8.41-7,12.28-5.43,8.31-7.88,17.77-11.38,26.82-1.67,4.31-3.66,8.59-3.9,13.34-2.82,7.93-5.11,16-5.13,24.54A22.12,22.12,0,0,0,231,114.9c1.76-3.33,2.19-7.2,5.43-9.93,11.9-10,26.07-14.91,40.84-18.3,3.16-.73,6.44-.92,9.44-2.35,2.85.72,5.74,0,8.61.21h-.19c2.53-.24,6.31-2.2,7.24,0,1,2.37-3.57,2.22-5,4.15a26.38,26.38,0,0,1-3.67,3.29c-.61.55-1.6,1.55-2,.88-2.73-4.17-3.67.17-4.86,1.14a28.54,28.54,0,0,0-7.42,9.06c-2.51-2.56.5-5.1-.54-7.47-4.27,3.89-5,9.9-8.9,13.79-2.88,2.87-5.78,6.19-10.64,4.52-.53-.19-.78,0-.95.27-3,5.56-9.24,6.59-13.7,10.09a10.44,10.44,0,0,0-1.1,1.2c-3.9,1.1-7,3.57-10.24,5.87-1.66.06-2.58,1.5-3.95,2.11-2.68,1.21-2.35,3.42-1.49,5.54s2.46,2.72,4.72,2.1a31.49,31.49,0,0,1,4.48-.49c5.32-.61,10.28,1.82,15.53,1.78l-.1-.05a.63.63,0,0,0,.94.4c9.33,3.47,19.17,5.48,28.2,10-10.72-10.79-25.17-15.6-38.09-23.82l6-2.16,9.21-.54c5.39.35,9.46,2.92,12.82,7.1,1.26,1.57,1.73,3.76,3.9,5,1.05-4-.84-6.92-2.78-9.85,1-2,2.76-1.6,4.33-1.3,3.76.73,8.57.46,11,2.71,3.89,3.66,8,3,12.24,3.32,1.37.1,1.56,1.36,1.93,2.39,2.33,6.39,4.46,12.85,7.46,19,.17.35.2.84.83.74,2.73-6.46-2.59-12-2.38-18.48,2.54.7,2.57,3.3,4.07,4.52-.82,3.8,2.34,6.16,3.48,9.26,2.55,6.91,3.54,14.17,5.07,21.6,6-8,9.59-27.05,8.08-42.06,0-2.8,0-5.6,0-8.4a24.26,24.26,0,0,0,0-7.56c-.64-8.64-3.15-16.84-6.6-25.69,3.67,2.14,5.67,4.84,8,7.13,3,3,6,6,8.91,9.14,2.16,2.3,2.39,4.78.44,7.4a9.53,9.53,0,0,0-1.06,2.23c-.62,1.57-2.71,3.41-1,4.73,1.4,1.06,2.61-1.4,3.94-2.26a26.88,26.88,0,0,1,3-1.42,3.32,3.32,0,0,1,4.16.54c1.38,1.41-.52,2.11-.8,3.16-.2.78-.53,1.52-.8,2.28-.41.07-1,0-1.19.23-5.79,6.58-8.66,14.79-12.38,22.52-.17.35.24,1,.38,1.49-.41-.13-.66,0-.7.44,0,.09.13.2.2.31l.49-.76c1.23.15,1.5-.9,2.08-1.61,4-5,6.53-11,11.16-15.53,2.25-1.25,3.34-3.63,5.21-5.25,3.91-2.67,7.44-5.94,11.92-7.75l.79.72c-.09,1.14-.19,2.28-.28,3.42,0,.35,0,.7.05,1.06-1.32,2.18-1.13,4.76-1.88,7.1a1.94,1.94,0,0,0,.58,2.27c.84.55,1.59-.18,2.24-.57,3.21-1.95,2.64-5.42,3.26-8.41a3.36,3.36,0,0,0,1.36-2.85c.61-.91,1.18-1.85,1.83-2.74,3.05-4.17,4.43-9.36,8-13.2,1.63,3.81.32,7.69.26,11.67,3.12-5.72,7.75-9.86,12.75-13.62.85-.64,1.74-1.87,2.83-1.3,1.43.76-.06,1.91-.06,2.9a79.46,79.46,0,0,1-.79,10.68,4,4,0,0,1-2.68,3.59c-3.67,1.79-7.42,3.38-11.29,5,3.43.82,6.86,1.45,10.14,0,2.85-1.24,3.65,0,3.46,2.44a77.83,77.83,0,0,1-1.23,7.69c-.12.67-.74,1.52-.5,1.94,2.73,4.88-1.39,4.36-4,5.41a96.47,96.47,0,0,1-13.33,4.24c-.7.18-1.42.4-1.36,1.26.07,1.05,1,.78,1.58.74,3.67-.26,7.41.67,11.05-.67,1-.38,2.58-1.42,3.34,0,.59,1.06-.42,2.39-1.28,3.28-4.1,4.22-9.43,6-14.95,7.34-.76.18-1.68-.11-2.4,1.24,4,.74,7.77-.43,12-.9-1.55,3.24-.93,3.93,2.36,5.54,3.89,1.91,8.31,3.78,11.66,6.95.67.64,1.83,1.14,1.56,2.25-.3,1.26-1.65,1.38-2.65,1.57a89.27,89.27,0,0,0-10.8,2.47,11.23,11.23,0,0,0-6.07,4c-4.63,1.95-5.77,3.36-5.28,6.74,5.09-3.71,11.18-4.17,17-5.56a81.21,81.21,0,0,0,9.48.19,11.72,11.72,0,0,1,10.49,4.07c4.33,4.69,8.95,9.1,13.51,13.69-2.65,2-4.86-.81-7.8.73,9.34,5.26,17.58,11.25,24.37,19l.05-.06-19.25-7.54c-1.25-.48-2.43-1.27-3.87-1a16.15,16.15,0,0,0-6.75-2.75c-9.28-1.48-18.23-4.71-27.71-5.09-.82,0-1.82-.18-1.82-1.23s1-1,1.81-1.16c2.32-.45,4.63-.94,7.33-1.49-1.84-1.91-3.73-1.89-5.63-1.94-6-.13-11.8,2.53-17.89,1.44a11,11,0,0,0-5-1.67c.16-1.58.33-3.16.49-4.74-3.11,3.7-7.38,4.18-11.61,4.73-4.24.27-7.81,2.54-11.68,3.93a1.74,1.74,0,0,0-1,1.1c-.1.94.76.9,1.42,1,2.14.37,4.26.77,6.77,1.22-1.48,3.13-4.94,4.31-5.83,7.4-1.26,1.08-2.27,2.11,0,3.25,2.12,1.05,3.9,2.79,6.39,3.07,2.22-.76,4.53-1.49,6.23-3.1,2-1.89,4-1.79,6.45-1.3,2.79.55,3.43,1.93,3.34,4.55-.06,2.1,2.27,2.17,3.68,2.76,3.08,1.31,3.66,2.95,1.21,5.39-5.89,4.16-11.77,8.37-18.79,10.67,5.37,1.6,12.6-.57,24.26-6.74a5.15,5.15,0,0,0,1.14-.42c5.85-4.07,9.76-3.61,14.7,1.25,1.68,1.66-.37,4.31,2,5.46l-.21,0,1.84,2v.13l.23-.05c-1,1.59-2.56,1.93-4.28,2a6.11,6.11,0,0,0-5.4,3.23c-1.81-.09-3.44.21-4.65,2.22a11.88,11.88,0,0,0,6.16-.06c3.15.25,5.95-1.06,8.7-2.22s4.87-.38,6.33,1.92a58.08,58.08,0,0,1,4,7.62c.81,1.82-1.12,1.81-2.06,2.37-.66.4-1.77.34-1.61,1.49.11.8.93,1,1.56,1.09,6,.41,6.48,5.18,6.87,9.4a114.74,114.74,0,0,0,2.3,13.34c.26,1.27.83,3.09-.51,3.75s-1.67-1.42-2.59-2.07c-4.32-3.06-8-7.19-13.46-8.42l0,0c.35-.89-.32-1-.91-1.25-1.3-1.06-3.16-2.33-4.36-1.63-1.61,1,0,2.57.61,3.86a1.64,1.64,0,0,1-.21,1.49c-.58.59-1.26.18-1.79-.29-.82-.73-1.61-1.51-2.41-2.27-7-6.62-13.22-14-21.14-19.69C352.23,242.71,338,237.09,323.1,233c-3.82-1.05-3.6,1-3,3.55,1.53,13.22,3.66,26.41,4.43,39.67s.23,26.77.22,40.17A320.59,320.59,0,0,1,320,368.86a380.12,380.12,0,0,1-12.8,52.34,20.34,20.34,0,0,0-1,6.5c.07,9.94-.12,19.89.11,29.82.09,3.73-1.24,4.78-4.79,4.68-7.15-.19-14.33.15-21.41-1.24-5-2.14-5-2.12-2.58-7,2-4.08,4.09-8.14,5.67-12.39,2-5.27,4.58-10.65,4.95-16.12A193.56,193.56,0,0,0,284.53,373c-3.46-16.67-7-33.31-11.51-49.76a426.86,426.86,0,0,0-14.48-44.81c-.65-1.63-1.27-3.3-3.51-2-3.56,2.06-7.55,3.34-10.85,5.89-4.5.42-4.68-.06-2.14-5.81,2.87-3.28,3.79-7.55,5.69-11.32a1.82,1.82,0,0,0,.17-1.47c-.46-.71-1.17-.33-1.84-.11-2.13.7-3.11,3-5.08,4-2.51-6.8,1.13-12.17,3.49-17.78.69-1.66,1.67-3.08.68-5-1.55-3.06-2.85-6.24-4.3-9.35A350.33,350.33,0,0,0,222.25,201c-3-4.84-6.52-9.32-10.36-14.76C210.88,192.51,208.94,197.64,207.32,202.86Zm85.46,40.08-.73-1.05c-.59-2.61-3-3.56-5-5l5.27,10.32c.33,2.69,2.34,5.23.73,8.09-3.85,2.83-6.46,7-10.58,9.6-2.44,1.53-3.43,1.32-3.27-1.73.18-3.36-.11-6.6-2.93-9-.3-1.56-.54-3.16-2.12-4.31,0,2.1-.43,4,.25,5.86-.56,4.43,1.6,8.77.4,13.76-3.16-2.87-1.82-7.09-3.75-9.91-2.16,3.16-1.73,6.31-.23,9.69,1.66,3.76,2.91,7.7,4.27,11.58,6.27,17.88,11.84,36,17.23,54.13,3,13.28,6.08,26.55,9.39,41,2.31-5.8,2.22-10.79,3.26-15.53l1-6.61.28-3.48a1.69,1.69,0,0,0,.66-2.15c.12-1.08.24-2.15.35-3.23.19-.2.51-.38.53-.6.92-10,2.51-19.94,2.55-29.92.08-17.36.69-34.72-.52-52.11a274.87,274.87,0,0,0-3.81-31c0-1.39.53-3.66-2-2.5-1.84.85-3.81,1.88-4.64,4.3-1,2.83-2.08,5.59-2.77,8.52-.6,2.56-1.89,3.09-3.88,1.14ZM173,146.42a15.1,15.1,0,0,0-2,.05c-3.78.62-5.22-.91-5.12-4.75.11-4.45.1-8.87,1.43-13-4.48,4.77-3.21,11.46-5.38,17.1-.37,1,.61,1.52,1.5,1.46,3.18-.23,6.44.31,9.53-.91a21.53,21.53,0,0,0,7-.42,31,31,0,0,1-4.37-9.69C174.25,140.3,172.1,142.93,173,146.42Zm43.91-52.21c1.59,2.17,2.52,5,6.2,6.36-2.06-3.24-3-6.17-5.29-8.33-1-3.56-3.82-5.87-6-8.62-1.17-1.46-2.93-2.05-4.54-2.74a3.76,3.76,0,0,0-4.74,1.49c-1,1.78,1.09,2.71,2.25,3.18C209.57,87.47,213,91.18,216.91,94.21Zm58.82,75.27c-2.85-4.49-7-7.42-11.63-9.87-.86-.47-1.85-.86-2.64-.07s.17,1.47.39,2.19c1.39,4.62,1.39,4.62-3.52,4.46-3.66-1.24-7,.6-10.52,1.06,3.79-.18,7.4,1,11.12,1.24l0,.21v-.22c1.16,1.2,2.53,1,3.92.57h3a9.62,9.62,0,0,0,5.85,1.18,5.65,5.65,0,0,0,4.61.49l13.89,3.55c-2-5.24-6.75-6.54-10.1-9.35,1.76,4.55,1.76,4.54-2.73,4.33A8.73,8.73,0,0,0,275.73,169.48Zm-41.64,16.91-6.25-1.55c3.56,3.65,5,7.74,8.17,10.53,1.89,3.19,3.86,6.33,5.64,9.58,2.38,4.33,4.06,9.07,7.61,12.69.81,3.4,2.9,6.21,4.22,9.37s2.42,3.82,4.76.5a91.16,91.16,0,0,1,17.62-18.24c4.56-3.67,9.78-6.3,15-9.88-3.62-1.37-6.82-2.51-9.95-3.81-2.89-1.21-5.75-2.94-5.26,2.68a3.74,3.74,0,0,1-2.39,3.48c-.25.11-1-1.07-1.56-1.66-.51-.8-1-1.58-1.53-2.39-1-1.74-2.89-3.51-4.46-2.83-1.88.81.9,2.79.3,4.37l-.36.36c-2.24.23-4.13-1.08-6.23-1.45-1.54-1.32-3.47-1.26-5.3-1.53a9.67,9.67,0,0,0-4.31-.23,11.26,11.26,0,0,1-6.51-5.06,29.32,29.32,0,0,0-6.45-7.3c-.79-.66-1.73-1.76-2.81-.9-1.37,1.09,1,1.62.66,2.67Zm97.39-.61c3.3-.18,6.7.45,9.37-2.42s5.53-5.75,8.47-8.44c3.29-3,6.34-6.22,11.63-5.73,3.36.3,5.73-2.23,7.6-5.6A61.65,61.65,0,0,0,331.48,185.78Zm-22.35-8.69c-3.57-9-6.85-8.53-15.15-7.8-.88.08-2,.72-1.37,1.49,1.61,2.14,2.91,6.2,5.23,5.76C301.77,175.8,305.33,177.22,309.13,177.09Z" transform="translate(-58.32 -37.79)"/><path class="cls-2" d="M244.18,282.3c3.3-2.55,7.29-3.83,10.85-5.89,2.24-1.3,2.86.37,3.51,2A426.86,426.86,0,0,1,273,323.22c4.46,16.45,8.05,33.09,11.51,49.76a193.56,193.56,0,0,1,3.65,52.44c-.37,5.47-3,10.85-4.95,16.12-1.58,4.25-3.68,8.31-5.67,12.39-2.4,4.91-2.46,4.89,2.58,7-5.85.54-11.52-.51-17.21-1.69-3.32-.69-4.11-1.86-2.51-5,3.33-6.63,6-13.55,8.67-20.49,4.58-11.86,2.73-23.91,2.37-35.93a154.42,154.42,0,0,0-3.71-27.68c-4.73-22.14-9.25-44.35-15.89-66C249.6,296.7,247.51,289.29,244.18,282.3Z" transform="translate(-58.32 -37.79)"/><path class="cls-2" d="M119,134c3.9-3.26,5.21-9.1,10.93-11,.27,2.53-1.12,4.1-2.34,5.62-1.61,2-2.14,4.43-3,6.73-.93,2.5,1,3.7,2.61,4.5,2,1,2-1.32,2.54-2.34,3.83-7.48,7.63-14.95,15.11-19.92-1.07,2.2-2.08,4.44-3.22,6.61s-2.55,4.56-3.83,6.84c-.14.24-.22.51-.34.76-4,8.27-3.87,8.67,4.43,12.1a20.9,20.9,0,0,1,8.42,6.07c-4.08,2.73-8.65,3.09-13,3.92a102.13,102.13,0,0,0-28.94,10.22,30.36,30.36,0,0,0-13.59,13.8c5.59-1.86,9.54-6.83,16.52-8.87-11.65,12-19.78,24.69-24.26,39.58-5.58,3.13-9.59,8.19-14.71,11.9-.75.53-1.31,1.68-2.4,1.12s-.6-1.74-.57-2.62a55.23,55.23,0,0,1,8.2-28.19c3.71-5.88,6.46-12.5,11.93-17.2.63-.54,1.28-1.45.78-2.15-.67-.94-1.85-.52-2.62,0-2.35,1.67-4.61,3.45-6.89,5.19-.78.58-1.66,1.39-2.55.59-1.12-1,.23-1.64.67-2.38,3.4-5.71,8.34-9.39,14.16-12.66,10.89-6.12,22.78-8.51,34.67-11.17,1.07-.24,2.14-.5,3.19-.81,3-.88,2.58-2.17.55-3.85A27.9,27.9,0,0,0,121,140.84c-3.38-.88-3.12-2-2.17-4.39A7.83,7.83,0,0,0,119,134ZM92.22,169.26c-.4.31-.91.64-.25,1.13.1.07.55-.34.84-.54s.57-.67.51-.75C92.91,168.54,92.55,168.89,92.22,169.26Z" transform="translate(-58.32 -37.79)"/><path class="cls-2" d="M207.32,202.86c1.62-5.22,3.56-10.35,4.57-16.67,3.84,5.44,7.39,9.92,10.36,14.76a350.33,350.33,0,0,1,18.6,34.44c1.45,3.11,2.75,6.29,4.3,9.35,1,1.95,0,3.37-.68,5-2.36,5.61-6,11-3.49,17.78,2-1,3-3.26,5.08-4,.67-.22,1.38-.6,1.84.11a1.82,1.82,0,0,1-.17,1.47c-1.9,3.77-2.82,8-5.69,11.32-1.37-2.34-3.06-1.08-4.62-.33-3.11,1.48-6.18,3-9.27,4.57-1.12.55-2.33,1.29-3.48.34-1.49-1.23-.38-2.73.21-3.75a84.3,84.3,0,0,0,6.66-14.51c-3.95-.34-4.94,3-7.07,5.14-2-6.43-.21-12.1,2.78-17.42,2-3.53,1.65-6.52,0-10.08C221.18,227.6,215.06,214.81,207.32,202.86Z" transform="translate(-58.32 -37.79)"/><path class="cls-2" d="M142.05,188.77c-.14.9-1.05,1.89-.12,2.67s1.77-.17,2.62-.54c4-1.73,8-3.42,12-5.15a6.36,6.36,0,0,1,4.69,0c-2.24,3.16-4.33,6.08-6.45,8.73-3.68,4.61-4.06,10-5.6,15.18-.24.78-.4,1.75.31,2.28s1.57-.17,2.26-.53c2.12-1.11,4.21-2.29,6.79-3.7-.31,3.53-3.32,4-4.57,6-2,3.06-3,6.64-5.35,9.51-.77.93-1,2.92.4,3.65,1.2.61,2.19-.87,2.66-1.84,2-4.2,6.59-6,9-9.87.52-.82,2.46-.75,3.65-1.06-4.26,5.51-9.65,10.2-12.2,17.16a49.39,49.39,0,0,0-2,10c-.41,2.82-.74,5.67-1.28,8.48-1.06.36-1,2.45-2.3,1.92-.78-.31-1.31-1.72-1.54-2.73-.39-1.73-.46-3.52-.75-6a13,13,0,0,0-2.22,9.18c.64,4.57-2.42,6.78-5.1,9.25-1.77,1.63-2,.1-2.55-1.38-2.59-7.17-1.24-14.36-.37-21.57,1-7.77,3.37-14.83,9.29-20.31.51-.47,1-1.1.32-1.73s-1.24,0-1.76.42l-9,7.87c-.32-5.82,4.48-9.73,6.26-15.13-.29-.45-1.29-.32-1.85,0-4.22,2.21-4.69.93-3.84-3.3.92-4.5,2-8.78,4.69-12.55l-.06.08a1.64,1.64,0,0,0,.89-1.75l-.05.1C140.1,191.06,140.5,189.37,142.05,188.77Z" transform="translate(-58.32 -37.79)"/><path class="cls-2" d="M328.8,130.05c1.51,15-2.05,34-8.08,42.06-1.53-7.43-2.52-14.69-5.07-21.6-1.14-3.1-4.3-5.46-3.48-9.26a225.9,225.9,0,0,0,.26-27.29c-.29-8.93-3-17.5-5.79-26.11,6.1,5.46,12.28,10.64,17.17,17.12,1.4,1.86.68,3.62-.15,5.44-1.13,2.45-2.92,4.63-3.28,7.9,3.54-.53,5.12-4.18,8.4-4.22a24.26,24.26,0,0,1,0,7.56c-6.11,7.53-9.64,16.37-12.92,25.35,1.5-1.47,2.53-3.29,4-4.69C323.55,138.73,324.39,133.08,328.8,130.05Z" transform="translate(-58.32 -37.79)"/><path class="cls-2" d="M158.44,107.4h.06c-1.79-3.35-5.52-2.69-8.34-3.75-2.2-.84-3.33-1.81-4-4A90.51,90.51,0,0,0,130.86,69.2q-5.19-6.65-10.41-13.28c-.5-.64-1.47-1.2-1.17-2.05.4-1.13,1.62-.75,2.54-.79,7.25-.37,11.47,3,13.59,11,.71,2.67,1.64,5.1,4.7,7.1-1.13-5-2.1-9.29-3.07-13.61C147.83,70,157.69,83,162,99.12c1,3.81,3.05,5.17,6.4,6,5,1.32,9.9,2.83,13.46,7,.62.71,1.76,1.35,1.22,2.36s-1.64.27-2.52,0c-5.75-1.71-11.5-3.39-17.26-5.08C162.4,107,160.37,107.33,158.44,107.4Z" transform="translate(-58.32 -37.79)"/><path class="cls-2" d="M320.11,236.55c-.61-2.53-.83-4.6,3-3.55,14.92,4.09,29.13,9.71,41.84,18.78,7.92,5.66,14.15,13.07,21.14,19.69.8.76,1.59,1.54,2.41,2.27.53.47,1.21.88,1.79.29a1.64,1.64,0,0,0,.21-1.49c-.65-1.29-2.22-2.9-.61-3.86,1.2-.7,3.06.57,4.36,1.63-.05.68-.05,1.31.91,1.25l0,0c-1.19,3.4,2,6.9-.32,10.68-4.26-6.05-10.52-9.21-16.37-12.8-4-2.45-4.17-2.15-3.89,2.37a4.42,4.42,0,0,1-.92,3.15C358.56,258.23,342.38,243.07,320.11,236.55Z" transform="translate(-58.32 -37.79)"/><path class="cls-2" d="M202.85,62.07c-.73,2.3-1.69,3.88-4.59,4.37-2.48.42-4.23,2.82-5.25,5.28a45.43,45.43,0,0,1-4.3,8.31c-2.22.38-4.15.91-1.68,3.53l-3.39,8L173.31,76.8c1.61-3,2.55-6.75,5-8.81,4.15-3.55,8.82-6.48,12.44-10.71,1.12-1.31,2.17-.63,2.87.75.91,1.8,1.87,3.57,3.15,6,1.76-4-.79-7.05-.11-10.22.33-1.54-.53-3.64,1.86-3.92,2.75-.33,2.59,2.22,2.72,3.75A35.62,35.62,0,0,0,202.85,62.07Z" transform="translate(-58.32 -37.79)"/><path class="cls-2" d="M93.36,118.14c-2.28,2-5.33,2.55-7.93,4,0-1.31.47-3.42-1.94-1.93-3.8,2.35-7.89,4.4-10.39,8.4-2.22,3.56-5.81,2.56-9,2.49-2,0-4.89,1.23-5.67-.77s2.39-2.56,3.73-3.84c6.6-6.33,14.92-9.62,23.19-12.92A137.37,137.37,0,0,1,108,106.18a71.19,71.19,0,0,1,24.95-.8c-1.55,2.35-4.06,1-6.08,1.46a147.4,147.4,0,0,0-23,7.13c-1.35.53-2.73,1.42-4.34.9-.71-2.32-1.8-3.08-3.49-.76C95.11,115.42,94.26,116.79,93.36,118.14Z" transform="translate(-58.32 -37.79)"/><path class="cls-2" d="M286.71,84.32c-3,1.43-6.28,1.62-9.44,2.35C262.5,90.06,248.33,95,236.43,105c-3.24,2.73-3.67,6.6-5.43,9.93a22.12,22.12,0,0,1-2.13,3.85c0-8.56,2.31-16.61,5.13-24.54,9.87-3.46,19.4-7.67,30-9.28,5.93-.9,11.93-.85,17.82-2C283.21,82.65,286,80.94,286.71,84.32Z" transform="translate(-58.32 -37.79)"/><path class="cls-2" d="M227.74,41.2c-2.53.62-4,1.61-4.62,4.75-1.48,7.82-2,15.71-2.78,23.64-.9-4.74-2.76-9.24-2.87-14.12a4.54,4.54,0,0,0-.47-2c-.52-1-.58-2.68-2.38-2.18-1.29.36-1.47,1.45-1.36,2.66.21,2.17-.28,4.37.57,6.53a6.16,6.16,0,0,1-.13,5c-1.83-.54-1.9-2.31-2.54-3.5-2.46-4.58-2.4-4.61-6.57-1.58,1.07-5.48.79-11.12,2.3-16.59.64-2.32,1.65-3.46,3.81-3.31,2.79.19,5.71-1,8.37.82,1.62,1.13,1.87-.76,2.24-1.43.95-1.69,2.25-2,4.05-2.07C228.12,37.73,228.88,38.71,227.74,41.2Z" transform="translate(-58.32 -37.79)"/><path class="cls-2" d="M249.56,126.7l-6,2.16c12.92,8.22,27.37,13,38.09,23.82-9-4.54-18.87-6.55-28.19-10l-.95-.4.1.05c-6-4.42-12.83-7.43-19.29-11,3.21-2.3,6.34-4.77,10.24-5.87C245.4,126.44,247.82,125,249.56,126.7Z" transform="translate(-58.32 -37.79)"/><path class="cls-2" d="M367.79,196c6.09,1.09,11.88-1.57,17.89-1.44,1.9,0,3.79,0,5.63,1.94-2.7.55-5,1-7.33,1.49-.78.16-1.81.09-1.81,1.16s1,1.19,1.82,1.23c9.48.38,18.43,3.61,27.71,5.09a16.15,16.15,0,0,1,6.75,2.75c1.56,3.43,5.3,4.88,7.27,8.18-19.33-10.12-40.14-14.82-61.61-17.55C364.76,196.55,366.77,197,367.79,196Z" transform="translate(-58.32 -37.79)"/><path class="cls-2" d="M364.14,115.42c-4.48,1.81-8,5.08-11.92,7.75.62-6.17,4.91-10.65,7.37-16a32.4,32.4,0,0,1,2.56-4.66,2,2,0,0,1,2.52-.92c1.08.57.07,1.42-.05,2.14a13.42,13.42,0,0,0,.1,5.56c2.61-.38,3.61-2.75,5.29-4.15,2.42-2,4.23-4.72,7.1-6.27.94-.52,1.76-1.67,2.9-.91s-.15,1.73-.11,2.62a15.07,15.07,0,0,0,.24,1.62c-3.62,3.84-5,9-8.05,13.2-.65.89-1.22,1.83-1.83,2.74l-5.61,1.4c.09-1.14.19-2.28.27-3.42.05-.36.28-.88.12-1C364.69,114.71,364.37,115.09,364.14,115.42Z" transform="translate(-58.32 -37.79)"/><path class="cls-2" d="M86.16,132.36c3.29-1.86,4.61-5.76,8-7.62,1.15-.63,1.92-1.87,3.4-2.14,1.65-.29,2.61-3.34,4.38-1.84.74.61-.09,3.28-.47,5-.26,1.16-.79,2.24,0,3.85,4.15-4.4,7.1-9.26,10.49-13.79.69-.93,1.32-2.94,3.06-1.49a2.48,2.48,0,0,1,.12,4c-4.95,4.42-8,10.45-12.7,15-1.63,4.06-4.71,4.44-8.15,2.84C91.55,134.91,87.71,136,86.16,132.36Z" transform="translate(-58.32 -37.79)"/><path class="cls-2" d="M347,128.42c-4.63,4.51-7.14,10.56-11.16,15.53-.58.71-.85,1.76-2.08,1.61h0c-.14-.5-.55-1.14-.38-1.49,3.72-7.73,6.59-15.94,12.38-22.52.21-.24.78-.16,1.19-.23C347,123.69,347,126.05,347,128.42Z" transform="translate(-58.32 -37.79)"/><path class="cls-2" d="M374.07,227.56c-11.66,6.17-18.89,8.34-24.26,6.74,7-2.3,12.9-6.51,18.79-10.67Z" transform="translate(-58.32 -37.79)"/><path class="cls-2" d="M272.71,128.37c1.94,2.93,3.83,5.88,2.78,9.85-2.17-1.2-2.64-3.39-3.9-5-3.36-4.18-7.43-6.75-12.82-7.1,3.36-.59,6.37,1.06,9.54,1.62A31.2,31.2,0,0,0,272.71,128.37Z" transform="translate(-58.32 -37.79)"/><path class="cls-2" d="M391.47,179.14c-5.8,1.39-11.89,1.85-17,5.56-.49-3.38.65-4.79,5.28-6.74C383.62,178.88,387.76,176.89,391.47,179.14Z" transform="translate(-58.32 -37.79)"/><path class="cls-2" d="M183.27,208.83c-2.26-3.44-3.54-7.24-4.81-12a13.85,13.85,0,0,1,7.25,7.87C185.37,206.39,183.25,207,183.27,208.83Z" transform="translate(-58.32 -37.79)"/><path class="cls-2" d="M351.63,194.35c4.23-.55,8.5-1,11.61-4.73-.16,1.58-.33,3.16-.49,4.74C359,195.24,355.33,196.13,351.63,194.35Z" transform="translate(-58.32 -37.79)"/><path class="cls-2" d="M347.69,215.33c-2.49-.28-4.27-2-6.39-3.07-2.3-1.14-1.29-2.17,0-3.25C344.59,209.92,348.71,210,347.69,215.33Z" transform="translate(-58.32 -37.79)"/><path class="cls-2" d="M385.61,243.25a11.88,11.88,0,0,1-6.16.06c1.21-2,2.84-2.31,4.65-2.22Z" transform="translate(-58.32 -37.79)"/><path class="cls-2" d="M393.78,235.85l-.23.05v-.13l.14-.07Z" transform="translate(-58.32 -37.79)"/><path class="cls-2" d="M391.71,233.81l.21,0Z" transform="translate(-58.32 -37.79)"/><polygon class="cls-1" points="383.2 179.04 383.36 179.23 383.25 179 383.2 179.04"/><path class="cls-2" d="M295.13,84.53h0Z" transform="translate(-58.32 -37.79)"/><path class="cls-2" d="M307.21,345.05c-.11,1.08-.23,2.15-.35,3.23a1.51,1.51,0,0,0-.66,2.15c-.1,1.16-.19,2.32-.28,3.48-1.8,2-.63,4.41-1,6.61-1,4.74-.95,9.73-3.26,15.53-3.31-14.49-6.35-27.76-9.39-41,.59-6.56,1.67-13.12,1.66-19.69,0-20,.92-40-.93-60,1.61-2.86-.4-5.4-.73-8.09.39-1.81-1.58-3.51-.23-5.36l.73,1.05-.11-.05c2,2,3.28,1.42,3.88-1.14.69-2.93,1.8-5.69,2.77-8.52.83-2.42,2.8-3.45,4.64-4.3,2.53-1.16,2,1.11,2,2.5-4.18.22-2.51,3.36-2.29,5.25.87,7.47,2.31,14.87,3.08,22.35a272.12,272.12,0,0,1,1.66,37.87c-.39,10.59.59,21.18-.7,31.78C307.05,334.07,307.35,339.59,307.21,345.05Z" transform="translate(-58.32 -37.79)"/><path class="cls-2" d="M271.71,200.08c.53.59,1.31,1.77,1.56,1.66a3.74,3.74,0,0,0,2.39-3.48c-.49-5.62,2.37-3.89,5.26-2.68,3.13,1.3,6.33,2.44,9.95,3.81-5.23,3.58-10.45,6.21-15,9.88a91.16,91.16,0,0,0-17.62,18.24c-2.34,3.32-3.39,2.77-4.76-.5s-3.41-6-4.22-9.37A87.41,87.41,0,0,1,271.71,200.08Z" transform="translate(-58.32 -37.79)"/><path class="cls-2" d="M331.48,185.78a61.65,61.65,0,0,1,37.07-22.19c-1.87,3.37-4.24,5.9-7.6,5.6-5.29-.49-8.34,2.74-11.63,5.73-2.94,2.69-5.76,5.53-8.47,8.44S334.78,185.6,331.48,185.78Z" transform="translate(-58.32 -37.79)"/><path class="cls-2" d="M249.82,196.38c.08.91,1,1.63.5,2.74-4.94-.58-9.13-4.13-14.31-3.75-3.2-2.79-4.61-6.88-8.17-10.53l6.25,1.55c.2.13.49.42.57.37.42-.26.38-.63.05-1,.31-1-2-1.58-.66-2.67,1.08-.86,2,.24,2.81.9a29.32,29.32,0,0,1,6.45,7.3A11.26,11.26,0,0,0,249.82,196.38Z" transform="translate(-58.32 -37.79)"/><path class="cls-2" d="M309.13,177.09c-3.8.13-7.36-1.29-11.29-.55-2.32.44-3.62-3.62-5.23-5.76-.58-.77.49-1.41,1.37-1.49C302.28,168.56,305.56,168.12,309.13,177.09Z" transform="translate(-58.32 -37.79)"/><path class="cls-2" d="M258.33,166.19c4.91.16,4.91.16,3.52-4.46-.22-.72-1.16-1.42-.39-2.19s1.78-.4,2.64.07c4.59,2.45,8.78,5.38,11.62,9.87l.54,1.23a5.65,5.65,0,0,1-4.61-.49c-1.32-2.59-3.61-3.87-6.56-5.05.29,1.57.5,2.72.71,3.87h-3c-1.19-1-2.55-.77-3.92-.57v.22l0-.21Z" transform="translate(-58.32 -37.79)"/><path class="cls-2" d="M216.91,94.21c-3.93-3-7.34-6.74-12.11-8.66-1.16-.47-3.27-1.4-2.25-3.18a3.76,3.76,0,0,1,4.74-1.49c1.61.69,3.37,1.28,4.54,2.74,2.17,2.75,5,5.06,6,8.62C217.51,92.9,217.21,93.55,216.91,94.21Z" transform="translate(-58.32 -37.79)"/><path class="cls-2" d="M172.94,146.36c-3.09,1.22-6.35.68-9.53.91-.89.06-1.87-.47-1.5-1.46,2.17-5.64.9-12.33,5.38-17.1-1.33,4.14-1.32,8.56-1.43,13-.1,3.84,1.34,5.37,5.12,4.75a15.1,15.1,0,0,1,2-.05Z" transform="translate(-58.32 -37.79)"/><path class="cls-2" d="M368.9,121c-.62,3,0,6.46-3.26,8.41-.65.39-1.4,1.12-2.24.57a1.94,1.94,0,0,1-.58-2.27c.75-2.34.56-4.92,1.88-7.1Z" transform="translate(-58.32 -37.79)"/><path class="cls-2" d="M173,146.42c-.9-3.49,1.25-6.12,2.55-10.17a31,31,0,0,0,4.37,9.69,21.53,21.53,0,0,1-7,.42Z" transform="translate(-58.32 -37.79)"/><path class="cls-3" d="M292.05,241.89c-1.35,1.85.62,3.55.23,5.36L287,236.93C289.07,238.33,291.46,239.28,292.05,241.89Z" transform="translate(-58.32 -37.79)"/><path class="cls-3" d="M93.36,118.14c.9-1.35,1.75-2.72,2.69-4,1.69-2.32,2.78-1.56,3.49.76C97.61,116.21,95.8,117.78,93.36,118.14Z" transform="translate(-58.32 -37.79)"/><path class="cls-2" d="M259.43,198.14c-3.86,6.72-3.52-1.08-5.3-1.53C256,196.88,257.89,196.82,259.43,198.14Z" transform="translate(-58.32 -37.79)"/><path class="cls-2" d="M276.23,254.21l-1.87,1.54c-.68-1.85-.28-3.75-.25-5.85C275.69,251.05,275.93,252.65,276.23,254.21Z" transform="translate(-58.32 -37.79)"/><path class="cls-3" d="M304.93,360.52c.36-2.2-.81-4.63,1-6.61Z" transform="translate(-58.32 -37.79)"/><path class="cls-3" d="M158.44,107.4c1.93-.07,4-.4,4.87,2C161.24,109.82,159.77,108.77,158.44,107.4Z" transform="translate(-58.32 -37.79)"/><path class="cls-3" d="M258.89,168.48c1.37-.2,2.73-.45,3.92.57C261.42,169.45,260.05,169.68,258.89,168.48Z" transform="translate(-58.32 -37.79)"/><path class="cls-3" d="M306.2,350.43a1.51,1.51,0,0,1,.66-2.15A1.69,1.69,0,0,1,306.2,350.43Z" transform="translate(-58.32 -37.79)"/><path class="cls-3" d="M139,191.93a1.64,1.64,0,0,1-.89,1.75A1.8,1.8,0,0,1,139,191.93Z" transform="translate(-58.32 -37.79)"/><path class="cls-2" d="M333.77,145.56l-.49.76c-.07-.11-.2-.22-.2-.31,0-.44.29-.57.7-.44Z" transform="translate(-58.32 -37.79)"/><path class="cls-3" d="M252.47,142.26l.95.4A.64.64,0,0,1,252.47,142.26Z" transform="translate(-58.32 -37.79)"/><path class="cls-3" d="M292.67,242.89l.11.05Z" transform="translate(-58.32 -37.79)"/><path class="cls-3" d="M395.15,271.56c-1,.06-1-.57-.91-1.25C394.83,270.52,395.5,270.67,395.15,271.56Z" transform="translate(-58.32 -37.79)"/><path class="cls-3" d="M92.81,169.85c-.29.2-.74.61-.84.54-.66-.49-.15-.82.25-1.13Z" transform="translate(-58.32 -37.79)"/><path class="cls-1" d="M364.14,115.42c.23-.33.55-.71.9-.33.16.17-.07.69-.12,1Z" transform="translate(-58.32 -37.79)"/><path class="cls-1" d="M266,199.23c.42.22.65.49.15.85a4.07,4.07,0,0,1-.5-.49Z" transform="translate(-58.32 -37.79)"/><path class="cls-1" d="M234.71,185.79c.33.34.37.71-.05,1-.08.05-.37-.24-.57-.37Z" transform="translate(-58.32 -37.79)"/></svg>